<svg width="107" height="42" viewBox="0 0 107 42" fill="none" xmlns="http://www.w3.org/2000/svg">
<path d="M14.5825 33.788C15.9381 35.4712 18.6241 35.0414 19.379 33.0206L27.6371 10.9141C28.4687 8.68803 26.2822 6.52126 24.043 7.35251L1.81478 15.6044C-0.218153 16.359 -0.644312 19.0285 1.05383 20.3709L5.35903 23.7741C6.02828 24.3032 6.97442 24.3109 7.65237 23.7929L18.0723 15.8313C18.3706 15.6034 18.7929 15.6306 19.059 15.895C19.3251 16.1593 19.3525 16.5787 19.1231 16.875L11.1101 27.2221C10.5875 27.8969 10.5965 28.839 11.1319 29.5038L14.5825 33.788Z" fill="#A64EFF"/>
<path d="M44.4925 28L41.5767 22.7076H40.7579V28H37.3428V13.9801H43.0745C44.1796 13.9801 45.1183 14.1732 45.8905 14.5593C46.676 14.9454 47.2619 15.478 47.648 16.157C48.0341 16.8227 48.2271 17.5683 48.2271 18.3938C48.2271 19.3258 47.9609 20.1579 47.4283 20.8902C46.909 21.6225 46.1368 22.1418 45.1116 22.448L48.347 28H44.4925ZM40.7579 20.2911H42.8748C43.5006 20.2911 43.9666 20.138 44.2728 19.8317C44.5924 19.5255 44.7521 19.0928 44.7521 18.5336C44.7521 18.001 44.5924 17.5816 44.2728 17.2754C43.9666 16.9692 43.5006 16.8161 42.8748 16.8161H40.7579V20.2911ZM55.4436 28.1598C54.3519 28.1598 53.3666 27.9268 52.4879 27.4608C51.6225 26.9948 50.9368 26.3291 50.4308 25.4636C49.9382 24.5982 49.6919 23.5863 49.6919 22.428C49.6919 21.283 49.9449 20.2778 50.4508 19.4123C50.9568 18.5336 51.6491 17.8612 52.5278 17.3952C53.4066 16.9292 54.3918 16.6962 55.4836 16.6962C56.5753 16.6962 57.5606 16.9292 58.4393 17.3952C59.3181 17.8612 60.0104 18.5336 60.5164 19.4123C61.0223 20.2778 61.2753 21.283 61.2753 22.428C61.2753 23.573 61.0156 24.5849 60.4964 25.4636C59.9904 26.3291 59.2914 26.9948 58.3994 27.4608C57.5207 27.9268 56.5354 28.1598 55.4436 28.1598ZM55.4436 25.204C56.096 25.204 56.6486 24.9644 57.1013 24.4851C57.5673 24.0057 57.8003 23.3201 57.8003 22.428C57.8003 21.536 57.5739 20.8503 57.1212 20.371C56.6819 19.8917 56.136 19.652 55.4836 19.652C54.8179 19.652 54.2653 19.8917 53.826 20.371C53.3866 20.837 53.1669 21.5226 53.1669 22.428C53.1669 23.3201 53.3799 24.0057 53.806 24.4851C54.2454 24.9644 54.7912 25.204 55.4436 25.204ZM66.5021 13.2212V28H63.087V13.2212H66.5021ZM72.3921 13.2212V28H68.977V13.2212H72.3921ZM76.5845 15.6977C75.9854 15.6977 75.4927 15.5246 75.1066 15.1784C74.7338 14.8189 74.5474 14.3796 74.5474 13.8603C74.5474 13.3278 74.7338 12.8884 75.1066 12.5422C75.4927 12.1827 75.9854 12.003 76.5845 12.003C77.1703 12.003 77.6496 12.1827 78.0224 12.5422C78.4086 12.8884 78.6016 13.3278 78.6016 13.8603C78.6016 14.3796 78.4086 14.8189 78.0224 15.1784C77.6496 15.5246 77.1703 15.6977 76.5845 15.6977ZM78.2821 16.856V28H74.867V16.856H78.2821ZM87.5472 16.7362C88.852 16.7362 89.8905 17.1622 90.6627 18.0144C91.4483 18.8531 91.841 20.0115 91.841 21.4894V28H88.4459V21.9487C88.4459 21.2031 88.2528 20.6239 87.8667 20.2112C87.4806 19.7985 86.9614 19.5921 86.309 19.5921C85.6566 19.5921 85.1373 19.7985 84.7512 20.2112C84.3651 20.6239 84.172 21.2031 84.172 21.9487V28H80.757V16.856H84.172V18.3339C84.5182 17.8413 84.9842 17.4552 85.57 17.1756C86.1559 16.8826 86.8149 16.7362 87.5472 16.7362ZM98.4481 16.6962C99.2336 16.6962 99.9193 16.856 100.505 17.1756C101.104 17.4951 101.564 17.9145 101.883 18.4337V16.856H105.298V27.98C105.298 29.0052 105.092 29.9306 104.679 30.756C104.28 31.5948 103.661 32.2605 102.822 32.7532C101.996 33.2458 100.964 33.4921 99.7263 33.4921C98.0753 33.4921 96.7372 33.0993 95.712 32.3138C94.6868 31.5416 94.101 30.4898 93.9545 29.1583H97.3297C97.4362 29.5844 97.6892 29.9172 98.0886 30.1569C98.488 30.4099 98.9807 30.5364 99.5665 30.5364C100.272 30.5364 100.831 30.33 101.244 29.9172C101.67 29.5178 101.883 28.8721 101.883 27.98V26.4023C101.55 26.9215 101.091 27.3476 100.505 27.6805C99.9193 28 99.2336 28.1598 98.4481 28.1598C97.5294 28.1598 96.6973 27.9268 95.9517 27.4608C95.2061 26.9815 94.6136 26.3091 94.1742 25.4437C93.7482 24.5649 93.5351 23.5531 93.5351 22.408C93.5351 21.263 93.7482 20.2578 94.1742 19.3924C94.6136 18.5269 95.2061 17.8612 95.9517 17.3952C96.6973 16.9292 97.5294 16.6962 98.4481 16.6962ZM101.883 22.428C101.883 21.5759 101.643 20.9035 101.164 20.4109C100.698 19.9183 100.126 19.672 99.4467 19.672C98.7676 19.672 98.1885 19.9183 97.7092 20.4109C97.2432 20.8902 97.0102 21.5559 97.0102 22.408C97.0102 23.2601 97.2432 23.9392 97.7092 24.4451C98.1885 24.9377 98.7676 25.184 99.4467 25.184C100.126 25.184 100.698 24.9377 101.164 24.4451C101.643 23.9525 101.883 23.2801 101.883 22.428Z" fill="#4A494F"/>
</svg>
