<svg width="60" height="80" viewBox="0 0 76 131" fill="none" xmlns="http://www.w3.org/2000/svg">
<path d="M47.983 89.8247H27.6222V78.7423C27.6222 74.1031 28.1376 70.6667 29.1686 68.433C30.3713 66.0275 32.9486 62.8488 36.9005 58.8969L50.0449 45.7526C52.794 42.8316 54.1686 39.0515 54.1686 34.4124C54.1686 29.945 52.7081 26.2509 49.7871 23.3299C47.038 20.4089 43.3438 18.9485 38.7047 18.9485C34.0655 18.9485 30.1995 20.4089 27.1067 23.3299C24.0139 26.079 22.2957 29.7732 21.9521 34.4124H0.0448619C1.24761 23.7594 5.37132 15.4261 12.416 9.41237C19.6325 3.2268 28.6531 0.134013 39.4779 0.134013C50.3026 0.134013 59.0655 3.14089 65.7665 9.15463C72.4675 14.9966 75.8181 23.0722 75.8181 33.3814C75.8181 40.4261 73.7562 46.4399 69.6325 51.4227C67.0552 54.8591 63.7906 58.3814 59.8387 61.9897C55.715 65.7698 52.8799 68.6048 51.3335 70.4948C49.0998 73.5876 47.983 77.3677 47.983 81.835V89.8247ZM24.2717 116.629C24.2717 113.021 25.6462 109.928 28.3954 107.351C31.1445 104.601 34.4091 103.227 38.1892 103.227C41.9693 103.227 45.2339 104.515 47.983 107.093C50.7321 109.67 52.1067 112.763 52.1067 116.371C52.1067 120.151 50.7321 123.416 47.983 126.165C45.4057 128.742 42.227 130.031 38.4469 130.031C34.6669 130.031 31.3163 128.742 28.3954 126.165C25.6462 123.416 24.2717 120.237 24.2717 116.629Z" fill="#A64EFF"/>
</svg>
